<svg width="24" height="28" viewBox="0 0 24 28" fill="none" xmlns="http://www.w3.org/2000/svg">
<path fill-rule="evenodd" clip-rule="evenodd" d="M6.90235 2.40708C4.38987 3.75784 4.8553 7.91642 5.0236 9.00448C4.84694 9.1597 4.73092 9.37701 4.70188 9.61456C4.55725 10.8026 5.01525 11.7393 5.99668 12.2696C6.37625 13.4083 6.97562 14.5436 7.72827 15.4884C7.72206 15.8254 7.66309 16.3192 7.55714 16.7245C7.14364 16.6795 6.6076 16.9534 6.39614 17.0631C6.25495 17.1354 6.16886 17.2835 6.1723 17.4419C6.17276 17.4608 6.17551 17.537 6.18764 17.6578C4.57229 18.0595 2.06685 19.1915 1.23417 22.3835C1.07576 22.9895 1 23.6611 1 24.429V27.1081C1 27.3354 1.18596 27.5213 1.41323 27.5213C1.64051 27.5213 1.82647 27.3354 1.82647 27.1081V24.429C1.82647 23.7334 1.8919 23.1307 2.03308 22.5935C2.72261 19.9514 4.68437 18.8891 6.33307 18.4728C6.61556 19.5939 7.39216 21.3278 9.52294 22.1218C9.57115 22.1424 9.61936 22.1493 9.66757 22.1493H9.67101C9.74608 22.1493 9.82115 22.1278 9.88635 22.0876L10.6146 22.69C10.6327 22.7055 10.6522 22.7194 10.6727 22.7314L9.90862 25.7341C9.87763 25.8615 9.90518 25.9958 9.98782 26.0957L11.3997 27.845C11.4789 27.9483 11.5994 28 11.72 28H11.7234C11.7366 28 11.7498 27.9993 11.763 27.998C11.7762 27.9993 11.7895 28 11.8026 28H11.8061C11.9266 28 12.0437 27.9449 12.1263 27.845L13.5382 26.0957C13.6174 25.9958 13.6484 25.8615 13.6174 25.7341L12.8535 22.7324C12.8728 22.7209 12.8911 22.7079 12.908 22.6934L13.6396 22.0882C13.704 22.128 13.7783 22.1493 13.855 22.1493H13.8584C13.9067 22.1493 13.9549 22.139 14.0031 22.1218C16.1333 21.328 16.9101 19.5947 17.1927 18.4736C18.8408 18.8905 20.8004 19.9532 21.4895 22.5935C21.6272 23.1307 21.6961 23.7299 21.6961 24.429V27.1081C21.6961 27.3354 21.8821 27.5213 22.1093 27.5213C22.3366 27.5213 22.5226 27.3354 22.5226 27.1081V24.429C22.5226 23.6576 22.4468 22.9895 22.2884 22.3835C21.4563 19.197 18.9537 18.0615 17.3383 17.6587C17.3505 17.5374 17.3532 17.4608 17.3537 17.4419C17.3606 17.2835 17.2711 17.1354 17.1299 17.0631C16.9206 16.9532 16.3833 16.6764 15.9681 16.7233C15.8636 16.3245 15.806 15.8393 15.7981 15.5039C16.5571 14.5564 17.1613 13.415 17.5431 12.2696C18.5314 11.7393 18.9929 10.8026 18.8482 9.60767C18.819 9.36843 18.7015 9.15176 18.5227 8.99726C18.6945 7.88743 19.1427 3.75558 16.6409 2.41053C16.2276 1.53585 15.4838 0.850572 14.5782 0.509654C13.6965 0.176046 12.7677 0.00733115 11.8151 0.00351002C11.7975 0.00119484 11.7795 0 11.7613 0C10.7971 0 9.85697 0.172181 8.96507 0.506211C8.06285 0.847128 7.31558 1.53585 6.90235 2.40708ZM12.3779 21.9599C12.3496 21.957 12.3207 21.9569 12.2917 21.9599H11.8146C11.7971 21.9576 11.7793 21.9565 11.7613 21.9565H11.0278L10.4455 21.4765C10.7659 21.1564 11.2349 20.7697 11.7634 20.5952C12.2906 20.7686 12.76 21.1561 13.0808 21.4768L12.4948 21.9599H12.3779ZM12.0135 22.7864L12.7668 25.7341L11.763 26.9774L10.7592 25.7341L11.5125 22.7864H11.7578L11.7579 22.7864L11.7613 22.7864H12.0135ZM15.3197 17.3892C15.1904 17.0761 15.1018 16.691 15.0463 16.3268C14.0926 17.2352 12.9701 17.8241 11.7751 17.8241L11.7647 17.8276C10.5646 17.8276 9.43777 17.233 8.48145 16.3172C8.42625 16.6836 8.33771 17.0727 8.20789 17.3887C8.6722 18.1155 9.84901 19.5919 11.7637 19.5941C13.6876 19.5911 14.8585 18.1159 15.3197 17.3892ZM11.7292 0.826536C10.8762 0.830238 10.0468 0.981691 9.25778 1.27758C8.51396 1.55651 7.91133 2.13504 7.6014 2.86853C7.56352 2.96151 7.49121 3.03726 7.39823 3.07859C5.33101 4.06242 5.67384 7.69034 5.82917 8.78418C5.84853 8.78776 5.86782 8.79194 5.88699 8.79673C6.21149 8.40259 6.44725 7.92512 6.57521 7.40721C6.76116 6.65994 7.05387 6.00221 7.44644 5.45812C7.99742 4.69364 9.20957 4.97257 10.7454 5.32727L10.7494 5.32819C12.3225 5.68961 14.2796 6.13929 15.5252 5.35137C15.7111 5.23429 15.9522 5.2825 16.083 5.45812C16.572 6.13996 16.8268 6.89411 16.9543 7.40721C17.0823 7.92861 17.3211 8.40412 17.6442 8.79787C17.6677 8.79144 17.6912 8.78591 17.715 8.78128C17.8707 7.67983 18.2082 4.06397 16.145 3.08203C16.0555 3.03726 15.9832 2.96495 15.9418 2.87197C15.6319 2.14193 15.0258 1.55996 14.2855 1.28102C13.4865 0.981429 12.6463 0.82991 11.7819 0.82991C11.7641 0.82991 11.7465 0.828762 11.7292 0.826536ZM17.2345 9.57383C17.2095 9.557 17.186 9.53727 17.1643 9.5147C16.6788 8.99127 16.3275 8.33354 16.1484 7.61038C16.0589 7.24536 15.8936 6.73915 15.6078 6.25015C14.1064 6.95265 12.1539 6.50498 10.5595 6.13651C9.57459 5.90924 8.34522 5.62686 8.11794 5.94367C7.70471 6.51531 7.48776 7.16271 7.37757 7.60694C7.1985 8.3301 6.84725 8.98783 6.3617 9.51125C6.35592 9.51742 6.34998 9.52338 6.34391 9.52912C6.22753 9.69349 6.00579 9.75357 5.82105 9.66277L5.71086 9.60767C5.66265 9.58357 5.62133 9.5939 5.59378 9.60767C5.56967 9.62145 5.53179 9.649 5.5249 9.71098C5.41815 10.6098 5.74874 11.2468 6.51666 11.6015C6.61997 11.6497 6.70262 11.7427 6.73706 11.8529C7.5222 14.3461 9.55049 16.9977 11.7716 16.9977C13.9927 16.9977 16.021 14.3461 16.8062 11.8529C16.8406 11.7427 16.9198 11.6497 17.0266 11.6015C17.7979 11.2434 18.132 10.6063 18.0252 9.70754C18.0183 9.64555 17.9804 9.618 17.9563 9.60423C17.9288 9.59046 17.8875 9.57668 17.8393 9.60423L17.7222 9.66277C17.5547 9.74795 17.3567 9.70672 17.2345 9.57383ZM8.09384 8.46784C8.17649 8.57804 8.30045 8.63313 8.42442 8.63313V8.62969C8.51051 8.62969 8.59661 8.60214 8.67237 8.54704L8.67429 8.546L8.67796 8.54378C8.72232 8.5167 9.02547 8.33163 9.44718 8.39552C9.67101 8.42996 9.88107 8.275 9.91551 8.04772C9.94994 7.82388 9.79498 7.61382 9.5677 7.57939C8.76879 7.45886 8.23158 7.84455 8.17304 7.88931C7.99053 8.02706 7.95609 8.28533 8.09384 8.46784ZM9.61247 10.596C9.32665 10.596 9.09593 10.3653 9.09593 10.0794C9.09593 9.79363 9.32665 9.56291 9.61247 9.56291C9.89829 9.56291 10.129 9.79363 10.129 10.0794C10.129 10.3653 9.89829 10.596 9.61247 10.596ZM11.7716 12.3178C11.4686 12.3178 11.1759 12.2868 10.9073 12.2248C10.6834 12.1732 10.5457 11.9528 10.5973 11.7289C10.649 11.5051 10.8728 11.3674 11.0932 11.419C11.5065 11.5154 12.0368 11.5154 12.45 11.419C12.6704 11.3674 12.8942 11.5051 12.9459 11.7289C12.9975 11.9528 12.8598 12.1732 12.636 12.2248C12.3639 12.2868 12.0747 12.3178 11.7716 12.3178ZM11.7647 14.5975C10.3425 14.5975 9.70889 13.9707 9.64002 13.8984C9.48161 13.7331 9.4885 13.4714 9.65724 13.313C9.81909 13.158 10.0808 13.1615 10.2358 13.3233L10.2384 13.3257C10.2844 13.3669 10.7323 13.7676 11.7647 13.7676C12.8219 13.7676 13.2765 13.3405 13.2937 13.3233C13.4555 13.1649 13.7138 13.1615 13.8757 13.3233C14.0375 13.4817 14.0444 13.7366 13.8894 13.8984C13.8206 13.9707 13.1869 14.5975 11.7647 14.5975ZM13.9239 10.5925C13.6381 10.5925 13.4073 10.3618 13.4073 10.076C13.4073 9.79019 13.6381 9.55946 13.9239 9.55946C14.2097 9.55946 14.4404 9.79019 14.4404 10.076C14.4404 10.3618 14.2097 10.5925 13.9239 10.5925ZM11.8336 15.9715H11.565C11.3377 15.9715 11.1518 15.7855 11.1518 15.5582C11.1518 15.331 11.3377 15.145 11.565 15.145H11.8336C12.0609 15.145 12.2468 15.331 12.2468 15.5582C12.2468 15.7855 12.0609 15.9715 11.8336 15.9715ZM4.99115 27.1081C4.99115 27.3354 5.1771 27.5213 5.40438 27.5213C5.63166 27.5213 5.81761 27.3354 5.81761 27.1081V24.1018C5.81761 23.8746 5.63166 23.6886 5.40438 23.6886C5.1771 23.6886 4.99115 23.8746 4.99115 24.1018V27.1081ZM15.1119 8.63313C15.0258 8.63313 14.9397 8.60558 14.8674 8.55049C14.8502 8.53671 14.5437 8.32665 14.0892 8.39552C13.8653 8.42652 13.6518 8.275 13.6208 8.04772C13.5864 7.82044 13.7414 7.61038 13.9686 7.57939C14.7617 7.46367 15.2923 7.83909 15.3611 7.88773L15.3633 7.88931C15.5458 8.02706 15.5802 8.28533 15.4425 8.46784C15.3599 8.57459 15.2393 8.63313 15.1119 8.63313ZM9.54015 21.2402C7.53597 20.3414 7.11241 18.3923 7.02288 17.6829C7.17439 17.621 7.2777 17.5865 7.35002 17.5693C7.68061 18.165 8.72746 19.7698 10.6008 20.2725C10.1256 20.5997 9.75366 20.9888 9.54015 21.2402ZM18.1182 27.5317C17.8909 27.5317 17.705 27.3457 17.705 27.1184V24.1053C17.705 23.878 17.8909 23.692 18.1182 23.692C18.3455 23.692 18.5314 23.878 18.5314 24.1053V27.1184C18.5314 27.3457 18.3455 27.5317 18.1182 27.5317ZM13.9824 21.2402C13.7689 20.9888 13.397 20.5997 12.9218 20.2725C14.7917 19.7732 15.842 18.165 16.1726 17.5693C16.2449 17.5865 16.3516 17.6175 16.4997 17.6829C16.4102 18.3958 15.9866 20.3449 13.9824 21.2402Z" fill="#313131"/>
</svg>
